<?xml version="1.0" standalone="no"?>
<!DOCTYPE svg PUBLIC "-//W3C//DTD SVG 20010904//EN"
 "http://www.w3.org/TR/2001/REC-SVG-20010904/DTD/svg10.dtd">
<svg version="1.0" xmlns="http://www.w3.org/2000/svg"
 width="450.000000pt" height="450.000000pt" viewBox="0 0 450.000000 450.000000"
 preserveAspectRatio="xMidYMid meet">

<g transform="translate(0.000000,450.000000) scale(0.100000,-0.100000)"
fill="#000000" stroke="none">
<path d="M2071 2973 l-50 -88 271 -5 270 -5 79 -135 c43 -74 79 -141 79 -148
0 -7 -35 -74 -77 -148 l-78 -134 -272 0 c-150 0 -273 -3 -273 -6 0 -4 23 -47
51 -95 l51 -89 271 0 272 0 133 230 c72 126 132 234 132 240 0 6 -60 114 -132
241 l-133 229 -272 0 -271 0 -51 -87z"/>
<path d="M655 1816 c-48 -21 -60 -56 -60 -170 0 -119 14 -149 77 -168 52 -15
123 6 123 37 0 15 -5 19 -20 16 -11 -2 -40 -4 -65 -5 -38 -1 -46 3 -57 24 -7
14 -13 59 -13 100 0 41 6 86 13 100 11 21 19 25 57 24 25 -1 54 -3 65 -5 12
-3 21 2 23 14 2 12 -7 22 -32 32 -43 18 -71 18 -111 1z"/>
<path d="M904 1816 c-55 -24 -64 -48 -64 -169 l0 -109 34 -34 c29 -29 41 -34
81 -34 40 0 52 5 81 34 l34 34 0 109 c0 122 -9 145 -66 169 -41 17 -60 17
-100 0z m112 -71 c18 -44 18 -146 0 -190 -25 -60 -110 -56 -127 5 -12 45 -9
150 5 185 14 33 18 35 61 35 43 0 47 -2 61 -35z"/>
<path d="M1147 1824 c-4 -4 -7 -85 -7 -181 0 -166 1 -173 20 -173 19 0 20 7
20 110 0 61 4 110 8 110 5 0 24 -33 43 -72 20 -43 41 -73 49 -73 8 0 33 33 55
75 l40 75 5 -110 c5 -102 7 -110 25 -110 19 0 20 8 23 171 2 154 1 172 -14
178 -24 9 -33 -2 -84 -112 l-46 -97 -55 105 c-52 100 -67 119 -82 104z"/>
<path d="M1517 1823 c-4 -3 -7 -84 -7 -180 0 -163 1 -173 19 -173 24 0 31 19
31 80 l0 47 49 5 c66 6 98 29 111 77 15 57 -5 111 -50 133 -34 18 -140 25
-153 11z m147 -65 c9 -12 16 -32 16 -43 0 -41 -28 -65 -76 -65 l-44 0 0 65 0
65 44 0 c35 0 48 -5 60 -22z"/>
<path d="M1842 1818 c-14 -19 -112 -330 -106 -340 13 -20 42 -6 50 25 10 32
11 32 76 35 l66 3 7 -31 c7 -34 30 -49 47 -32 8 8 -3 54 -36 159 -59 184 -76
214 -104 181z m25 -226 c-22 -2 -41 -1 -44 2 -4 4 18 95 34 136 3 8 15 -18 27
-60 l22 -75 -39 -3z"/>
<path d="M2057 1823 c-4 -3 -7 -84 -7 -180 0 -163 1 -173 19 -173 27 0 31 18
31 138 l0 107 68 -120 c51 -90 72 -120 87 -120 19 0 20 8 23 169 3 172 -3 201
-32 177 -12 -10 -16 -40 -18 -127 l-3 -114 -60 112 c-72 132 -88 152 -108 131z"/>
<path d="M2343 1823 c-20 -7 -16 -23 29 -114 34 -69 43 -97 48 -159 4 -67 7
-75 25 -75 18 0 21 8 25 75 5 63 12 89 48 158 24 46 42 91 40 100 -7 37 -35
14 -72 -61 l-40 -79 -38 75 c-40 80 -46 87 -65 80z"/>
<path d="M1561 1273 c0 -45 2 -84 7 -86 4 -3 6 23 4 56 -5 104 -9 116 -11 30z"/>
<path d="M2754 1265 c0 -49 1 -71 3 -48 2 23 2 64 0 90 -2 26 -3 8 -3 -42z"/>
<path d="M2381 1270 c-1 -67 9 -91 39 -89 9 0 6 4 -7 9 -19 8 -23 17 -23 49 0
29 5 41 18 44 15 4 15 5 0 6 -9 0 -19 11 -21 24 -2 12 -5 -7 -6 -43z"/>
<path d="M1477 1293 c-15 -15 -5 -44 18 -55 42 -19 22 -56 -22 -42 -17 5 -17
5 0 -6 9 -6 26 -8 37 -5 28 9 25 43 -5 57 -32 14 -29 44 3 41 14 -2 21 1 17 7
-7 11 -38 13 -48 3z"/>
<path d="M1623 1293 c-17 -6 -17 -85 -1 -101 27 -27 68 1 68 48 0 44 -31 68
-67 53z m45 -48 c4 -42 -7 -59 -31 -49 -20 7 -24 80 -4 87 23 10 32 0 35 -38z"/>
<path d="M1731 1290 c-9 -5 -15 -32 -16 -79 -2 -62 0 -73 17 -82 23 -12 54 -4
62 18 8 20 -11 43 -35 43 -10 0 -21 5 -24 10 -3 6 3 10 13 10 24 0 38 16 45
55 5 27 3 30 -22 32 -14 1 -33 -2 -40 -7z m33 -6 c21 -8 20 -38 0 -55 -14 -11
-18 -10 -30 5 -9 13 -10 24 -3 37 11 21 11 21 33 13z m16 -123 c0 -25 -30 -36
-48 -17 -19 18 -7 36 24 36 17 0 24 -6 24 -19z"/>
<path d="M1834 1288 c-5 -8 -2 -9 11 -5 18 7 45 -8 45 -24 0 -5 -11 -9 -24 -9
-13 0 -29 -7 -37 -16 -20 -24 1 -49 42 -49 l34 0 -4 45 c-2 25 -8 51 -13 58
-13 15 -45 16 -54 0z m40 -54 c21 -8 20 -30 -1 -38 -21 -8 -38 8 -30 28 7 18
9 18 31 10z"/>
<path d="M1958 1293 c-15 -4 -18 -15 -16 -61 l2 -57 3 52 c3 34 9 53 19 57 26
10 34 -3 34 -49 0 -24 5 -47 10 -50 13 -8 13 71 0 96 -11 19 -19 21 -52 12z"/>
<path d="M2132 1288 c-17 -17 -15 -83 3 -98 12 -10 21 -10 40 -2 21 10 25 19
25 51 0 30 -5 43 -19 51 -25 13 -34 13 -49 -2z m46 -10 c30 -30 4 -96 -32 -82
-19 7 -23 80 -3 87 19 8 22 8 35 -5z"/>
<path d="M2230 1237 c0 -36 4 -56 10 -52 6 3 10 26 10 50 0 31 5 47 17 54 14
7 12 9 -10 8 -26 -2 -27 -4 -27 -60z"/>
<path d="M2464 1288 c-4 -6 -3 -8 4 -5 14 10 42 -2 42 -18 0 -7 -14 -15 -31
-19 -26 -5 -30 -10 -27 -33 3 -25 7 -28 38 -28 l35 0 -4 45 c-2 25 -8 51 -13
58 -13 15 -35 16 -44 0z m44 -69 c4 -19 -27 -34 -41 -20 -14 14 0 43 20 39 10
-2 19 -10 21 -19z"/>
<path d="M2572 1287 c-5 -7 -9 -44 -10 -84 0 -62 3 -73 19 -78 10 -3 28 -1 39
5 30 16 23 54 -10 58 -32 5 -51 22 -25 22 31 0 46 14 54 51 7 33 7 34 -25 36
-18 1 -37 -4 -42 -10z m46 -26 c4 -29 -9 -44 -31 -35 -20 7 -23 50 -4 57 20 9
32 2 35 -22z m8 -92 c9 -16 -20 -41 -39 -33 -27 10 -21 44 7 44 14 0 28 -5 32
-11z"/>
<path d="M2803 1240 c0 -36 2 -50 4 -32 2 17 2 47 0 65 -2 17 -4 3 -4 -33z"/>
<path d="M2850 1237 c0 -36 4 -56 10 -52 6 3 10 26 10 50 0 79 46 68 53 -13
l3 -47 2 51 c2 58 -9 73 -50 71 -27 -2 -28 -4 -28 -60z"/>
<path d="M2976 1285 c-20 -21 -21 -69 0 -89 18 -18 33 -20 54 -6 11 8 8 10
-15 8 -21 -2 -30 2 -33 15 -2 11 3 17 16 17 28 0 48 27 35 48 -14 23 -38 26
-57 7z m43 -8 c8 -10 7 -17 -1 -25 -18 -18 -38 -14 -38 6 0 32 20 42 39 19z"/>
</g>
</svg>
